<svg width="170" height="92" viewBox="0 0 170 92" fill="none" xmlns="http://www.w3.org/2000/svg">
<rect x="0.5" y="0.5" width="169" height="91" rx="3.5" stroke="#AFB1B8"/>
<path d="M85.425 43.4082C84.9819 42.8184 84.7699 42.1213 84.8203 41.4196V38.5364C84.8203 37.6526 85.0207 36.9809 85.4216 36.5214C85.8224 36.0619 86.511 35.8331 87.4871 35.8351C88.4044 35.8351 89.0555 36.0306 89.4405 36.4217C89.8605 36.9207 90.0648 37.5309 90.018 38.1463V38.8239H88.3772V38.1375C88.383 37.9129 88.3671 37.6882 88.3296 37.4659C88.306 37.3138 88.2234 37.1732 88.0952 37.067C87.9267 36.9525 87.7145 36.897 87.5007 36.9115C87.2759 36.897 87.0529 36.9556 86.8756 37.0758C86.7327 37.1935 86.6374 37.3477 86.6038 37.5157C86.5567 37.7511 86.5351 37.9897 86.5393 38.2285V41.7276C86.5134 42.0652 86.5858 42.403 86.7499 42.7102C86.8315 42.8141 86.9448 42.8965 87.0774 42.9483C87.2099 43.0001 87.3564 43.0192 87.5007 43.0035C87.7109 43.0184 87.9195 42.9615 88.0816 42.8451C88.2153 42.7305 88.3013 42.581 88.3262 42.4198C88.3645 42.1877 88.3816 41.9533 88.3772 41.7188V41.009H90.018V41.6572C90.0641 42.2988 89.8648 42.9356 89.4507 43.4698C89.0736 43.8981 88.4315 44.1122 87.4871 44.1122C86.5427 44.1122 85.8292 43.8834 85.425 43.4082Z" fill="#AFB1B8"/>
<path d="M92.2569 43.4376C91.8425 42.9888 91.6353 42.3347 91.6353 41.4695V38.4367C91.6353 37.5803 91.8425 36.9321 92.2569 36.4921C92.6714 36.0521 93.3644 35.8331 94.336 35.8351C95.3008 35.8351 95.9904 36.0541 96.4049 36.4921C96.8193 36.9321 97.03 37.5803 97.03 38.4367V41.4695C97.03 42.3259 96.8193 42.9829 96.3981 43.4346C95.9768 43.8863 95.2906 44.1122 94.336 44.1122C93.3814 44.1122 92.6748 43.8834 92.2569 43.4376ZM95.1004 42.7102C95.2488 42.4291 95.3164 42.1212 95.2974 41.8127V38.0994C95.3165 37.7969 95.25 37.4949 95.1038 37.2195C95.0205 37.1134 94.9044 37.0296 94.7686 36.9777C94.6329 36.9259 94.483 36.908 94.336 36.9262C94.1886 36.9085 94.0384 36.9265 93.9022 36.9783C93.766 37.0301 93.6492 37.1136 93.5648 37.2195C93.4155 37.4941 93.3477 37.7965 93.3678 38.0994V41.8303C93.3472 42.1389 93.4148 42.4471 93.5648 42.7278C93.6605 42.8224 93.7785 42.8982 93.9109 42.9502C94.0434 43.0021 94.1872 43.029 94.3326 43.029C94.4781 43.029 94.6219 43.0021 94.7543 42.9502C94.8867 42.8982 95.0047 42.8224 95.1004 42.7278V42.7102Z" fill="#AFB1B8"/>
<path d="M99.0035 35.9236H100.77L102.098 41.5192L103.457 35.9236H105.176L105.35 44.0003H104.079L103.943 38.3871L102.632 44.0003H101.613L100.254 38.3665L100.128 44.0003H98.8439L99.0035 35.9236Z" fill="#AFB1B8"/>
<path d="M107.33 35.9236H110.082C111.667 35.9236 112.46 36.688 112.46 38.217C112.46 39.6814 111.625 40.4126 109.956 40.4106H109.019V44.0003H107.32L107.33 35.9236ZM109.681 39.3754C109.849 39.3938 110.019 39.3805 110.181 39.3364C110.342 39.2924 110.49 39.2186 110.615 39.1203C110.81 38.8475 110.896 38.5271 110.86 38.2082C110.869 37.9618 110.841 37.7154 110.778 37.475C110.754 37.3947 110.712 37.3194 110.653 37.2534C110.595 37.1874 110.522 37.1322 110.439 37.0908C110.203 36.9932 109.942 36.9488 109.681 36.9618H109.022V39.3754H109.681Z" fill="#AFB1B8"/>
<path d="M114.909 35.9236H116.734L118.606 44.0003H117.022L116.652 42.138H115.025L114.644 44.0003H113.038L114.909 35.9236ZM116.469 41.2025L115.833 37.8123L115.198 41.2025H116.469Z" fill="#AFB1B8"/>
<path d="M120.117 35.9236H121.306L123.582 40.5309V35.9236H124.992V44.0003H123.861L121.571 39.1906V44.0003H120.114L120.117 35.9236Z" fill="#AFB1B8"/>
<path d="M128.294 40.9208L126.402 35.9349H127.996L129.151 39.1376L130.234 35.9349H131.794L129.925 40.9208V44.0003H128.294V40.9208Z" fill="#AFB1B8"/>
<path d="M88.0477 47.5316V47.954H86.6617V51.2359H86.0807V47.954H84.6879V47.5316H88.0477Z" fill="#AFB1B8"/>
<path d="M92.3927 51.2362H91.9442C91.8987 51.2386 91.8538 51.2261 91.8185 51.201C91.7846 51.1795 91.7587 51.15 91.7438 51.116L91.3429 50.2361H89.4201L89.0192 51.116C89.0078 51.1528 88.9869 51.1868 88.958 51.2157C88.9225 51.2402 88.8778 51.2527 88.8324 51.2509H88.3839L90.0825 47.5468H90.6737L92.3927 51.2362ZM89.5797 49.8607H91.1833L90.5038 48.3533C90.4537 48.2393 90.4117 48.1227 90.3781 48.0043C90.3543 48.0747 90.3339 48.1421 90.3136 48.2008L90.2524 48.3562L89.5797 49.8607Z" fill="#AFB1B8"/>
<path d="M95.3212 50.8724C95.4275 50.8772 95.5341 50.8772 95.6405 50.8724C95.7323 50.8642 95.8232 50.8495 95.9123 50.8284C95.9955 50.8107 96.0772 50.7882 96.1569 50.7609C96.2316 50.7345 96.3064 50.7022 96.3845 50.67V49.8369H95.705C95.6882 49.8378 95.6714 49.8356 95.6556 49.8305C95.6399 49.8255 95.6255 49.8177 95.6133 49.8076C95.6022 49.7993 95.5933 49.7889 95.5875 49.7772C95.5816 49.7655 95.5788 49.7529 95.5794 49.7401V49.4556H96.8975V50.8753C96.7899 50.9417 96.6763 51.0006 96.5577 51.0513C96.4366 51.1029 96.3104 51.1451 96.1807 51.1774C96.0417 51.2127 95.8997 51.2382 95.756 51.2537C95.5913 51.2695 95.4257 51.2773 95.26 51.2771C94.967 51.2793 94.6763 51.2325 94.4039 51.1393C94.1496 51.051 93.9185 50.9193 93.7245 50.7521C93.5353 50.5832 93.3864 50.3839 93.2862 50.1655C93.1792 49.9199 93.1261 49.6593 93.13 49.397C93.1264 49.133 93.1782 48.8706 93.2828 48.6226C93.3805 48.4031 93.5297 48.2033 93.7211 48.036C93.9149 47.8693 94.1461 47.7386 94.4005 47.6517C94.6914 47.5572 95.0002 47.5105 95.311 47.5138C95.4691 47.5137 95.627 47.5245 95.7832 47.5461C95.9213 47.5655 96.0567 47.597 96.1875 47.64C96.3063 47.6785 96.4202 47.7277 96.5272 47.7866C96.6313 47.8445 96.7301 47.9092 96.8227 47.9802L96.6597 48.209C96.6469 48.2299 96.6279 48.2475 96.6046 48.2598C96.5813 48.2722 96.5545 48.279 96.5272 48.2794C96.4896 48.2784 96.4531 48.2682 96.4219 48.2501C96.3709 48.2266 96.3165 48.1973 96.2554 48.1621C96.1832 48.123 96.107 48.0896 96.0278 48.0624C95.9265 48.0273 95.822 47.9998 95.7152 47.9802C95.5729 47.9576 95.4285 47.9468 95.2838 47.948C95.0597 47.9458 94.8371 47.9807 94.6281 48.0506C94.4391 48.1161 94.2687 48.2162 94.1287 48.3439C93.9879 48.4771 93.8804 48.6339 93.8128 48.8045C93.661 49.2056 93.661 49.6381 93.8128 50.0393C93.8871 50.2135 94.0029 50.3724 94.1525 50.5057C94.2918 50.6328 94.4609 50.7328 94.6485 50.799C94.8645 50.8631 95.0935 50.888 95.3212 50.8724Z" fill="#AFB1B8"/>
<path d="M100.736 50.8136H102.591V51.2359H100.169V47.5316H100.75L100.736 50.8136Z" fill="#AFB1B8"/>
<path d="M104.521 51.2359H103.94V47.5316H104.521V51.2359Z" fill="#AFB1B8"/>
<path d="M106.681 47.5492C106.716 47.5662 106.746 47.5892 106.77 47.6167L109.253 50.409C109.25 50.3651 109.25 50.321 109.253 50.277C109.253 50.236 109.253 50.1949 109.253 50.1568V47.517H109.759V51.2362H109.467C109.424 51.2392 109.38 51.2321 109.341 51.2156C109.306 51.1972 109.275 51.1733 109.25 51.1452L106.77 48.3558C106.77 48.3998 106.77 48.4409 106.77 48.482C106.77 48.523 106.77 48.5612 106.77 48.5964V51.2362H106.284V47.5316H106.586C106.619 47.5317 106.651 47.5377 106.681 47.5492Z" fill="#AFB1B8"/>
<path d="M114.036 47.5316V47.9393H111.978V49.1624H113.646V49.5554H111.978V50.8195H114.036V51.2272H111.38V47.5316H114.036Z" fill="#AFB1B8"/>
<path d="M53.1618 24.6555L78.9568 30.9788V53.1368L53.1618 46.8164V24.6555ZM51.5073 22.7667V47.8928L80.6079 55.0285V29.9054L51.5073 22.7667Z" fill="#AFB1B8"/>
<path d="M67.1039 66.6922L38 59.5505V34.4271L67.1039 41.5659V66.6922Z" fill="#AFB1B8"/>
<path d="M51.9897 24.371L77.4484 30.615L66.6215 39.9649L41.1594 33.7179L51.9897 24.371ZM51.5073 22.7667L38 34.4277L67.1039 41.5662L80.6078 29.9053L51.5073 22.7667Z" fill="#AFB1B8"/>
<path d="M68.7415 65.2788L80.6078 55.0315L68.7415 52.1193V65.2788Z" fill="#AFB1B8"/>
</svg>

